<svg width="13" height="13" viewBox="0 0 13 13" fill="none" xmlns="http://www.w3.org/2000/svg">
<path d="M7.96875 7.97656C8.65625 7.28906 9 6.46354 9 5.5C9 4.53646 8.65625 3.71354 7.96875 3.03125C7.28646 2.34375 6.46354 2 5.5 2C4.53646 2 3.71094 2.34375 3.02344 3.03125C2.34115 3.71354 2 4.53646 2 5.5C2 6.46354 2.34115 7.28906 3.02344 7.97656C3.71094 8.65885 4.53646 9 5.5 9C6.46354 9 7.28646 8.65885 7.96875 7.97656ZM13 12C13 12.2708 12.901 12.5052 12.7031 12.7031C12.5052 12.901 12.2708 13 12 13C11.7188 13 11.4844 12.901 11.2969 12.7031L8.61719 10.0312C7.6849 10.6771 6.64583 11 5.5 11C4.75521 11 4.04167 10.8568 3.35938 10.5703C2.68229 10.2786 2.09635 9.88802 1.60156 9.39844C1.11198 8.90365 0.721354 8.31771 0.429688 7.64062C0.143229 6.95833 0 6.24479 0 5.5C0 4.75521 0.143229 4.04427 0.429688 3.36719C0.721354 2.6849 1.11198 2.09896 1.60156 1.60937C2.09635 1.11458 2.68229 0.723958 3.35938 0.437499C4.04167 0.145833 4.75521 -5.96046e-07 5.5 -5.96046e-07C6.24479 -5.96046e-07 6.95573 0.145833 7.63281 0.437499C8.3151 0.723958 8.90104 1.11458 9.39063 1.60937C9.88542 2.09896 10.276 2.6849 10.5625 3.36719C10.8542 4.04427 11 4.75521 11 5.5C11 6.64583 10.6771 7.6849 10.0313 8.61719L12.7109 11.2969C12.9036 11.4896 13 11.724 13 12Z" fill="#96A3B6"/>
</svg>
